HIERARCHY
ROOT Hips
{
  OFFSET 5.80788e-005 67.184 3.4734
  CHANNELS 6 Xposition Yposition Zposition Zrotation Xrotation Yrotation
  JOINT Chest
  {
    OFFSET 0 8.7983 -4.7612
    CHANNELS 3 Zrotation Xrotation Yrotation
    JOINT Chest2
    {
      OFFSET 0 8.0291 0.4195
      CHANNELS 3 Zrotation Xrotation Yrotation
      JOINT Chest3
      {
        OFFSET 0 9.9351 -2.2114
        CHANNELS 3 Zrotation Xrotation Yrotation
        JOINT Neck
        {
          OFFSET 0 22.3885 -0.4656
          CHANNELS 3 Zrotation Xrotation Yrotation
          JOINT Head
          {
            OFFSET -0.0001 12.643 3.4389
            CHANNELS 3 Zrotation Xrotation Yrotation
            End Site
            {
              OFFSET 0.0001 17.6655 0.5274
            }
          }
        }
        JOINT LeftCollar
        {
          OFFSET 2.2603 21.606 7.4023
          CHANNELS 3 Zrotation Xrotation Yrotation
          JOINT LeftShoulder
          {
            OFFSET 13.5163 -1.1332 -5.0146
            CHANNELS 3 Zrotation Xrotation Yrotation
            JOINT LeftElbow
            {
              OFFSET -0.0995 -28.05 -0.2431
              CHANNELS 3 Zrotation Xrotation Yrotation
              JOINT LeftWrist
              {
                OFFSET 0.0679 -23.3996 -0.1402
                CHANNELS 3 Zrotation Xrotation Yrotation
                JOINT LeftFinger1
                {
                  OFFSET 0.7932 -9.069 2.5189
                  CHANNELS 3 Zrotation Xrotation Yrotation
                  JOINT LeftFinger11
                  {
                    OFFSET -0.8272 -3.3923 0.5977
                    CHANNELS 3 Zrotation Xrotation Yrotation
                    JOINT LeftFinger12
                    {
                      OFFSET -0.5649 -2.3158 0.4082
                      CHANNELS 3 Zrotation Xrotation Yrotation
                      End Site
                      {
                        OFFSET -0.4919 -1.6479 0.2673
                      }
                    }
                  }
                }
                JOINT LeftFinger2
                {
                  OFFSET 0.9159 -9.2044 0.2193
                  CHANNELS 3 Zrotation Xrotation Yrotation
                  JOINT LeftFinger21
                  {
                    OFFSET 0.0117 -4.1944 -0.0248
                    CHANNELS 3 Zrotation Xrotation Yrotation
                    JOINT LeftFinger22
                    {
                      OFFSET 0.0071 -2.3249 -0.0142
                      CHANNELS 3 Zrotation Xrotation Yrotation
                      End Site
                      {
                        OFFSET -0.1475 -2.0882 0.0028
                      }
                    }
                  }
                }
                JOINT LeftFinger3
                {
                  OFFSET 0.6113 -8.7231 -2.0637
                  CHANNELS 3 Zrotation Xrotation Yrotation
                  JOINT LeftFinger31
                  {
                    OFFSET -0.1927 -3.8059 -0.2383
                    CHANNELS 3 Zrotation Xrotation Yrotation
                    JOINT LeftFinger32
                    {
                      OFFSET -0.1091 -2.1688 -0.1362
                      CHANNELS 3 Zrotation Xrotation Yrotation
                      End Site
                      {
                        OFFSET -0.2358 -1.9176 -0.0906
                      }
                    }
                  }
                }
                JOINT LeftFinger4
                {
                  OFFSET -0.6151 -8.0947 -3.5641
                  CHANNELS 3 Zrotation Xrotation Yrotation
                  JOINT LeftFinger41
                  {
                    OFFSET -0.4882 -2.341 -0.6462
                    CHANNELS 3 Zrotation Xrotation Yrotation
                    JOINT LeftFinger42
                    {
                      OFFSET -0.3575 -1.7167 -0.4742
                      CHANNELS 3 Zrotation Xrotation Yrotation
                      End Site
                      {
                        OFFSET -0.4187 -1.5237 -0.3496
                      }
                    }
                  }
                }
                JOINT LeftFinger0
                {
                  OFFSET -1.42 -1.8761 1.4223
                  CHANNELS 3 Zrotation Xrotation Yrotation
                  JOINT LeftFinger01
                  {
                    OFFSET -1.1471 -3.4929 2.6334
                    CHANNELS 3 Zrotation Xrotation Yrotation
                    JOINT LeftFinger02
                    {
                      OFFSET -0.823 -2.3 1.6571
                      CHANNELS 3 Zrotation Xrotation Yrotation
                      End Site
                      {
                        OFFSET -0.5822 -1.6914 1.1582
                      }
                    }
                  }
                }
              }
            }
          }
        }
        JOINT RightCollar
        {
          OFFSET -2.2603 21.606 7.4023
          CHANNELS 3 Zrotation Xrotation Yrotation
          JOINT RightShoulder
          {
            OFFSET -13.5187 -1.1334 -5.0155
            CHANNELS 3 Zrotation Xrotation Yrotation
            JOINT RightElbow
            {
              OFFSET 0.0994 -28.0499 -0.2431
              CHANNELS 3 Zrotation Xrotation Yrotation
              JOINT RightWrist
              {
                OFFSET -0.0679 -23.3996 -0.1402
                CHANNELS 3 Zrotation Xrotation Yrotation
                JOINT RightFinger1
                {
                  OFFSET -0.7932 -9.0691 2.5189
                  CHANNELS 3 Zrotation Xrotation Yrotation
                  JOINT RightFinger11
                  {
                    OFFSET 0.8272 -3.3923 0.5977
                    CHANNELS 3 Zrotation Xrotation Yrotation
                    JOINT RightFinger12
                    {
                      OFFSET 0.565 -2.3158 0.4082
                      CHANNELS 3 Zrotation Xrotation Yrotation
                      End Site
                      {
                        OFFSET 0.4919 -1.6479 0.2673
                      }
                    }
                  }
                }
                JOINT RightFinger2
                {
                  OFFSET -0.916 -9.2044 0.2193
                  CHANNELS 3 Zrotation Xrotation Yrotation
                  JOINT RightFinger21
                  {
                    OFFSET -0.0117 -4.1944 -0.0248
                    CHANNELS 3 Zrotation Xrotation Yrotation
                    JOINT RightFinger22
                    {
                      OFFSET -0.0071 -2.3249 -0.0142
                      CHANNELS 3 Zrotation Xrotation Yrotation
                      End Site
                      {
                        OFFSET 0.1475 -2.0882 0.0028
                      }
                    }
                  }
                }
                JOINT RightFinger3
                {
                  OFFSET -0.6113 -8.7231 -2.0637
                  CHANNELS 3 Zrotation Xrotation Yrotation
                  JOINT RightFinger31
                  {
                    OFFSET 0.1927 -3.8059 -0.2383
                    CHANNELS 3 Zrotation Xrotation Yrotation
                    JOINT RightFinger32
                    {
                      OFFSET 0.1091 -2.1688 -0.1362
                      CHANNELS 3 Zrotation Xrotation Yrotation
                      End Site
                      {
                        OFFSET 0.2358 -1.9176 -0.0906
                      }
                    }
                  }
                }
                JOINT RightFinger4
                {
                  OFFSET 0.6151 -8.0947 -3.564
                  CHANNELS 3 Zrotation Xrotation Yrotation
                  JOINT RightFinger41
                  {
                    OFFSET 0.4882 -2.341 -0.6462
                    CHANNELS 3 Zrotation Xrotation Yrotation
                    JOINT RightFinger42
                    {
                      OFFSET 0.3574 -1.7166 -0.4742
                      CHANNELS 3 Zrotation Xrotation Yrotation
                      End Site
                      {
                        OFFSET 0.4187 -1.5237 -0.3496
                      }
                    }
                  }
                }
                JOINT RightFinger0
                {
                  OFFSET 1.4199 -1.8761 1.4221
                  CHANNELS 3 Zrotation Xrotation Yrotation
                  JOINT RightFinger01
                  {
                    OFFSET 1.1472 -3.4929 2.6336
                    CHANNELS 3 Zrotation Xrotation Yrotation
                    JOINT RightFinger02
                    {
                      OFFSET 0.8229 -2.3 1.6571
                      CHANNELS 3 Zrotation Xrotation Yrotation
                      End Site
                      {
                        OFFSET 0.5822 -1.6914 1.1582
                      }
                    }
                  }
                }
              }
            }
          }
        }
      }
    }
  }
  JOINT RightHip
  {
    OFFSET -9.412 3.9771 -0.7758
    CHANNELS 3 Zrotation Xrotation Yrotation
    JOINT RightKnee
    {
      OFFSET -0.7531 -40.938 0
      CHANNELS 3 Zrotation Xrotation Yrotation
      JOINT RightAnkle
      {
        OFFSET 0 -40.1986 0
        CHANNELS 3 Zrotation Xrotation Yrotation
        JOINT RightToe
        {
          OFFSET 0 -4.4182 9.239
          CHANNELS 3 Zrotation Xrotation Yrotation
          End Site
          {
            OFFSET 0 0 6.1981
          }
        }
      }
    }
  }
  JOINT LeftHip
  {
    OFFSET 9.4119 3.9773 -0.7758
    CHANNELS 3 Zrotation Xrotation Yrotation
    JOINT LeftKnee
    {
      OFFSET 0.7532 -40.9383 0
      CHANNELS 3 Zrotation Xrotation Yrotation
      JOINT LeftAnkle
      {
        OFFSET 0 -40.1986 0
        CHANNELS 3 Zrotation Xrotation Yrotation
        JOINT LeftToe
        {
          OFFSET 0 -4.4182 9.239
          CHANNELS 3 Zrotation Xrotation Yrotation
          End Site
          {
            OFFSET 0 0 6.1981
          }
        }
      }
    }
  }
}
MOTION
Frames:	5
Frame Time:	0.0333333
5.80788e-005 67.184 3.4734 0 0 -0 0 0 -0 0 0 -0 0 0 -0 0 0 -0 0 0 -0 0 0 -12.5014 88.1196 14.2451 10.6914 -0.00160068 -0.00239207 0.000740045 -8.4365e-005 7.00714e-005 -9.52055e-007 9.93923e-017 -1.98785e-016 -1.59028e-015 9.93923e-017 -5.96354e-016 -1.59028e-015 -9.93923e-017 -5.96354e-016 -1.59028e-015 9.93923e-017 -1.98785e-016 -1.59028e-015 -0.0128176 0.00232552 8.52707e-005 9.93923e-017 5.96354e-016 -0 9.93923e-017 -1.98785e-016 -1.59028e-015 -0.0160551 0.00299681 0.000857156 -2.48481e-016 0 3.18055e-015 9.93923e-017 -1.98785e-016 -1.59028e-015 -0.0125865 0.0031206 0.00282719 0 1.98785e-016 -0 9.93923e-017 -1.98785e-016 -1.59028e-015 9.93923e-017 -5.96354e-016 -1.59028e-015 -9.93923e-017 -5.96354e-016 -1.59028e-015 -0.865644 0.16582 7.03859 -88.0329 10.2057 -10.5567 0.0015593 -0.00248883 -0.000788628 7.87605e-005 4.10553e-005 1.24965e-005 -3.97569e-016 -7.95139e-016 3.18055e-015 -1.98785e-016 -3.97569e-016 3.18055e-015 -1.98785e-016 0 3.18055e-015 -3.97569e-016 -7.95139e-016 3.18055e-015 0.0129473 0.00231697 -8.70038e-005 9.93923e-017 -7.95139e-016 1.59028e-015 -3.97569e-016 -7.95139e-016 3.18055e-015 0.0163314 0.00303369 -0.000872333 3.97569e-016 7.95139e-016 -3.18055e-015 -3.97569e-016 -7.95139e-016 3.18055e-015 0.0145763 0.00367772 -0.00326275 9.93923e-017 -3.97569e-016 -0 -3.97569e-016 -7.95139e-016 3.18055e-015 -1.98785e-016 -3.97569e-016 3.18055e-015 -1.98785e-016 0 3.18055e-015 3.42485 1.36937 -0.0640303 0.000136572 0.69354 0.00145564 -3.42573 -2.06297 -0.0607933 -3.19502e-024 0 -1.48106e-024 -3.42498 1.36123 0.0639712 -6.769e-005 0.712612 -0.0012277 3.42582 -2.07388 0.0612819 2.55305e-023 0 -2.31416e-026 
-43.7457 2.04076 8.14177 -180 -89.9981 -180 -0.671198 8.11502 0.155346 -1.38609 16.2276 0.414185 -1.3861 16.2277 0.414187 6.21952e-006 17.9983 -7.46825e-007 4.36576e-007 -55.0006 4.69901e-007 15.5839 3.59572 4.31069 67.6368 48.9553 -19.1044 18.5434 -45.1001 -10.639 -5.90695 1.87565 -23.7367 -9.93923e-017 -1.19271e-015 -0 3.18055e-015 -3.97569e-016 3.18055e-015 -9.93923e-017 -7.95139e-016 -0 -9.93923e-017 -1.19271e-015 -0 -0.0127527 0.00232206 8.21298e-005 -4.96962e-016 1.19271e-015 -1.59028e-015 -9.93923e-017 -1.19271e-015 -0 -0.0160128 0.00299213 0.000851717 -5.46552e-006 1.13204e-006 1.66311e-006 -9.93923e-017 -1.19271e-015 -0 -0.0125716 0.00312163 0.00282383 4.37326e-015 1.98785e-015 -0 -9.93923e-017 -1.19271e-015 -0 3.18055e-015 -3.97569e-016 3.18055e-015 -9.93923e-017 -7.95139e-016 -0 -1.43853 0.726693 -1.56488 -6.47115 34.3901 -18.4489 21.1635 -65.046 34.1968 5.47271 1.36259 23.9029 -7.98774e-007 -1.49229e-005 4.0521e-006 -2.82327e-006 -5.08247e-006 -2.24727e-006 -1.63018e-006 1.29785e-008 -4.87873e-007 -7.98774e-007 -1.49229e-005 4.0521e-006 0.0129867 0.00233002 -0.000100629 -1.59028e-015 3.18055e-015 -2.78299e-015 -7.98774e-007 -1.49229e-005 4.0521e-006 0.0163234 0.00303124 -0.000872182 -8.15095e-007 1.28842e-008 -2.43979e-007 -7.98774e-007 -1.49229e-005 4.0521e-006 0.0146151 0.00368863 -0.00326949 -1.63018e-006 5.35926e-007 -4.8797e-007 -7.98774e-007 -1.49229e-005 4.0521e-006 -2.82327e-006 -5.08247e-006 -2.24727e-006 -1.63018e-006 1.29785e-008 -4.87873e-007 -6.85374 -15.387 -3.61631 4.30526 44.2913 -3.64118 5.40141 11.5098 11.1903 1.19496e-006 -6.04951e-008 -1.27614e-007 16.1865 0.957132 1.05343 -1.46967 11.4684 0.767844 -1.03596 27.2928 11.3342 -3.60505e-007 -1.11971e-005 1.23117e-006 
-43.7454 2.03976 8.14164 -180 -89.9981 -180 -0.671198 8.11502 0.155346 -1.38609 16.2276 0.414185 -1.3861 16.2277 0.414187 6.21952e-006 17.9983 -7.46825e-007 0.78627 -54.9126 0.62399 15.5839 3.59572 4.31069 67.6368 48.9552 -19.1044 18.5433 -45.1001 -10.6391 -5.90693 1.87563 -23.7368 -1.78906e-015 -3.97569e-016 -1.59028e-015 6.95746e-016 -1.19271e-015 -0 2.98177e-016 -1.98785e-015 -4.77083e-015 -1.78906e-015 -3.97569e-016 -1.59028e-015 -0.0128076 0.00232452 8.87977e-005 -5.26779e-015 -7.95139e-016 -0 -1.78906e-015 -3.97569e-016 -1.59028e-015 -0.01602 0.00298617 0.000857974 3.47873e-015 2.78299e-015 -1.59028e-015 -1.78906e-015 -3.97569e-016 -1.59028e-015 -0.0125978 0.00311845 0.00282417 -2.28602e-015 1.59028e-015 -1.59028e-015 -1.78906e-015 -3.97569e-016 -1.59028e-015 6.95746e-016 -1.19271e-015 -0 2.98177e-016 -1.98785e-015 -4.77083e-015 -1.43853 0.726693 -1.56488 -6.47115 34.3901 -18.4489 21.7516 -65.5829 34.7303 5.5821 1.25024 23.3987 -2.79199e-006 1.37156e-006 4.90028e-006 -7.52075e-006 -9.52025e-006 3.47643e-006 7.38299e-006 7.58638e-006 -1.49171e-005 -2.79199e-006 1.37156e-006 4.90028e-006 0.0129654 0.00231703 -9.25858e-005 2.21397e-006 -1.38265e-006 -2.21576e-006 -2.79199e-006 1.37156e-006 4.90028e-006 0.0163956 0.00304121 -0.000876751 3.61086e-006 -3.37844e-006 -4.66585e-006 -2.79199e-006 1.37156e-006 4.90028e-006 0.0146589 0.00369701 -0.00328535 3.61079e-006 -2.35544e-006 -4.66599e-006 -2.79199e-006 1.37156e-006 4.90028e-006 -7.52075e-006 -9.52025e-006 3.47643e-006 7.38299e-006 7.58638e-006 -1.49171e-005 -6.92347 -15.6288 -3.82838 4.33646 45.0964 -3.7197 5.41128 11.4893 11.1788 -1.36411e-007 -1.17671e-008 1.64163e-007 16.1863 0.956229 1.05345 -1.46969 11.4688 0.76793 -1.03566 27.2933 11.3342 2.55863e-006 6.0069e-006 2.62781e-007 
-43.745 2.03876 8.1415 -180 -89.9981 -180 -0.671198 8.11502 0.155346 -1.38609 16.2276 0.414185 -1.3861 16.2277 0.414187 6.21952e-006 17.9983 -7.46825e-007 1.56977 -54.8197 1.24499 15.5839 3.59572 4.31069 67.6368 48.9552 -19.1044 18.5433 -45.1001 -10.6391 -5.90693 1.87563 -23.7368 -1.78906e-015 -3.97569e-016 -1.59028e-015 6.95746e-016 -1.19271e-015 -0 2.98177e-016 -1.98785e-015 -4.77083e-015 -1.78906e-015 -3.97569e-016 -1.59028e-015 -0.0128076 0.00232452 8.87977e-005 -5.26779e-015 -7.95139e-016 -0 -1.78906e-015 -3.97569e-016 -1.59028e-015 -0.01602 0.00298617 0.000857974 3.47873e-015 2.78299e-015 -1.59028e-015 -1.78906e-015 -3.97569e-016 -1.59028e-015 -0.0125978 0.00311845 0.00282417 -2.28602e-015 1.59028e-015 -1.59028e-015 -1.78906e-015 -3.97569e-016 -1.59028e-015 6.95746e-016 -1.19271e-015 -0 2.98177e-016 -1.98785e-015 -4.77083e-015 -1.43853 0.726693 -1.56488 -6.47112 34.3901 -18.4489 22.3666 -66.1194 35.2905 5.69071 1.1367 22.8938 7.95139e-016 9.54166e-015 -2.98177e-015 -7.95139e-016 6.36111e-015 -3.77691e-015 -7.95139e-016 3.18055e-015 1.98785e-015 7.95139e-016 9.54166e-015 -2.98177e-015 0.0129043 0.0023084 -8.56403e-005 -1.43452e-031 -3.18055e-015 -2.5842e-015 7.95139e-016 9.54166e-015 -2.98177e-015 0.0163124 0.00302619 -0.000871967 1.59028e-015 1.59028e-014 -4.37326e-015 7.95139e-016 9.54166e-015 -2.98177e-015 0.0146357 0.00368258 -0.00327135 7.95139e-016 0 8.34896e-015 7.95139e-016 9.54166e-015 -2.98177e-015 -7.95139e-016 6.36111e-015 -3.77691e-015 -7.95139e-016 3.18055e-015 1.98785e-015 -6.99425 -15.87 -4.04141 4.36997 45.9041 -3.8003 5.42108 11.4688 11.1672 -2.75535e-007 3.93962e-008 3.26054e-007 16.186 0.954931 1.05345 -1.46967 11.47 0.768044 -1.03534 27.2934 11.3342 1.83004e-006 4.71014e-008 3.07703e-007 
-43.7445 2.03775 8.14136 -180 -89.9981 -180 -0.671198 8.11502 0.155346 -1.38609 16.2276 0.414185 -1.3861 16.2277 0.414187 6.21952e-006 17.9983 -7.46825e-007 2.35031 -54.7218 1.8628 15.5839 3.59572 4.31069 67.6368 48.9552 -19.1044 18.5433 -45.1001 -10.6391 -5.90693 1.87563 -23.7368 -1.78906e-015 -3.97569e-016 -1.59028e-015 6.95746e-016 -1.19271e-015 -0 2.98177e-016 -1.98785e-015 -4.77083e-015 -1.78906e-015 -3.97569e-016 -1.59028e-015 -0.0128076 0.00232452 8.87977e-005 -5.26779e-015 -7.95139e-016 -0 -1.78906e-015 -3.97569e-016 -1.59028e-015 -0.01602 0.00298617 0.000857974 3.47873e-015 2.78299e-015 -1.59028e-015 -1.78906e-015 -3.97569e-016 -1.59028e-015 -0.0125978 0.00311845 0.00282417 -2.28602e-015 1.59028e-015 -1.59028e-015 -1.78906e-015 -3.97569e-016 -1.59028e-015 6.95746e-016 -1.19271e-015 -0 2.98177e-016 -1.98785e-015 -4.77083e-015 -1.43853 0.726693 -1.56488 -6.47112 34.3901 -18.4489 23.0106 -66.6553 35.8797 5.7985 1.02196 22.388 2.38542e-015 0 -1.43125e-014 1.59028e-015 -3.18055e-015 -2.18663e-015 1.59028e-015 0 -2.18663e-015 2.38542e-015 0 -1.43125e-014 0.0129814 0.00232093 -8.73322e-005 1.00416e-030 1.11319e-014 -5.1684e-015 2.38542e-015 0 -1.43125e-014 0.0163156 0.0030341 -0.000875999 3.97569e-015 -1.59028e-015 -2.18663e-015 2.38542e-015 0 -1.43125e-014 0.0144946 0.00364462 -0.00323455 1.65521e-032 1.59028e-015 -5.96354e-016 2.38542e-015 0 -1.43125e-014 1.59028e-015 -3.18055e-015 -2.18663e-015 1.59028e-015 0 -2.18663e-015 -7.06622 -16.1096 -4.25543 4.40603 46.7134 -3.883 5.43077 11.4483 11.1554 -7.96144e-008 -1.79053e-005 -1.87512e-007 16.1857 0.953833 1.05347 -1.46971 11.4708 0.768155 -1.03499 27.2937 11.3342 -1.8101e-006 -2.30623e-005 3.73843e-006 
